<svg width="800" height="200" viewBox="0 0 800 200" fill="none" xmlns="http://www.w3.org/2000/svg">
<g clip-path="url(#clip0_2953_64)">
<path d="M800 0H0V200H800V0Z" fill="#CC8D4A"/>
<g opacity="0.15">
<path d="M80 66C83.3137 66 86 63.3137 86 60C86 56.6863 83.3137 54 80 54C76.6863 54 74 56.6863 74 60C74 63.3137 76.6863 66 80 66Z" fill="white" stroke="white" stroke-width="1.5"/>
<path d="M120 86C123.314 86 126 83.3137 126 80C126 76.6863 123.314 74 120 74C116.686 74 114 76.6863 114 80C114 83.3137 116.686 86 120 86Z" fill="white" stroke="white" stroke-width="1.5"/>
<path d="M100 126C103.314 126 106 123.314 106 120C106 116.686 103.314 114 100 114C96.6863 114 94 116.686 94 120C94 123.314 96.6863 126 100 126Z" fill="white" stroke="white" stroke-width="1.5"/>
<path d="M140 146C143.314 146 146 143.314 146 140C146 136.686 143.314 134 140 134C136.686 134 134 136.686 134 140C134 143.314 136.686 146 140 146Z" fill="white" stroke="white" stroke-width="1.5"/>
<path d="M80 60L120 80" stroke="white" stroke-width="1.5"/>
<path d="M120 80L100 120" stroke="white" stroke-width="1.5"/>
<path d="M100 120L140 140" stroke="white" stroke-width="1.5"/>
<path d="M80 60L100 120" stroke="white" stroke-width="1.5"/>
<path d="M720 66C723.314 66 726 63.3137 726 60C726 56.6863 723.314 54 720 54C716.686 54 714 56.6863 714 60C714 63.3137 716.686 66 720 66Z" fill="white" stroke="white" stroke-width="1.5"/>
<path d="M680 86C683.314 86 686 83.3137 686 80C686 76.6863 683.314 74 680 74C676.686 74 674 76.6863 674 80C674 83.3137 676.686 86 680 86Z" fill="white" stroke="white" stroke-width="1.5"/>
<path d="M700 126C703.314 126 706 123.314 706 120C706 116.686 703.314 114 700 114C696.686 114 694 116.686 694 120C694 123.314 696.686 126 700 126Z" fill="white" stroke="white" stroke-width="1.5"/>
<path d="M660 146C663.314 146 666 143.314 666 140C666 136.686 663.314 134 660 134C656.686 134 654 136.686 654 140C654 143.314 656.686 146 660 146Z" fill="white" stroke="white" stroke-width="1.5"/>
<path d="M720 60L680 80" stroke="white" stroke-width="1.5"/>
<path d="M680 80L700 120" stroke="white" stroke-width="1.5"/>
<path d="M700 120L660 140" stroke="white" stroke-width="1.5"/>
<path d="M720 60L700 120" stroke="white" stroke-width="1.5"/>
</g>
<path opacity="0.2" d="M330 25H355C358.333 25 360 26.6667 360 30V70C360 80 355 88.3333 345 95C335 99.6667 330 102 330 102C330 102 325 99.6667 315 95C305 88.3333 300 80 300 70V30C300 26.6667 301.667 25 305 25H330Z" fill="white" stroke="white" stroke-width="2"/>
<path d="M330 50C332.761 50 335 47.7614 335 45C335 42.2386 332.761 40 330 40C327.239 40 325 42.2386 325 45C325 47.7614 327.239 50 330 50Z" fill="white"/>
<path d="M318 73C320.761 73 323 70.7614 323 68C323 65.2386 320.761 63 318 63C315.239 63 313 65.2386 313 68C313 70.7614 315.239 73 318 73Z" fill="white"/>
<path d="M342 73C344.761 73 347 70.7614 347 68C347 65.2386 344.761 63 342 63C339.239 63 337 65.2386 337 68C337 70.7614 339.239 73 342 73Z" fill="white"/>
<path d="M330 45L318 68" stroke="white" stroke-width="2.5"/>
<path d="M330 45L342 68" stroke="white" stroke-width="2.5"/>
<path d="M318 68H342" stroke="white" stroke-width="2.5"/>
<path d="M283.852 113L289.648 78.0909H303.625C306.193 78.0909 308.273 78.4716 309.864 79.233C311.466 79.9943 312.585 81.0511 313.222 82.4034C313.858 83.7443 314.028 85.2898 313.733 87.0398C313.494 88.4034 313.011 89.5966 312.284 90.6193C311.568 91.642 310.682 92.483 309.625 93.142C308.568 93.8011 307.42 94.267 306.182 94.5398L306.114 94.8807C307.432 94.9375 308.619 95.3125 309.676 96.0057C310.733 96.6875 311.523 97.6534 312.045 98.9034C312.568 100.153 312.688 101.636 312.403 103.352C312.097 105.205 311.364 106.858 310.205 108.312C309.045 109.756 307.5 110.898 305.568 111.739C303.648 112.58 301.381 113 298.767 113H283.852ZM292.256 106.966H298.273C300.318 106.966 301.881 106.568 302.96 105.773C304.04 104.977 304.688 103.926 304.903 102.619C305.051 101.653 304.955 100.801 304.614 100.062C304.284 99.3239 303.722 98.7443 302.926 98.3239C302.142 97.9034 301.148 97.6932 299.943 97.6932H293.773L292.256 106.966ZM294.625 92.6989H300.097C301.097 92.6989 302.023 92.5227 302.875 92.1705C303.739 91.8068 304.449 91.2955 305.006 90.6364C305.574 89.9659 305.932 89.1761 306.08 88.267C306.284 86.9943 306 85.9773 305.227 85.2159C304.466 84.4432 303.273 84.0568 301.648 84.0568H296.057L294.625 92.6989ZM315.587 113L321.382 78.0909H344.905L343.882 84.1761H327.74L326.376 92.4943H341.308L340.286 98.5795H325.354L323.99 106.915H340.2L339.178 113H315.587ZM348.42 84.1761L349.443 78.0909H378.114L377.091 84.1761H366.403L361.631 113H354.335L359.108 84.1761H348.42ZM377.04 113L382.835 78.0909H390.216L387.83 92.4943H402.812L405.199 78.0909H412.562L406.767 113H399.403L401.79 98.5795H386.807L384.42 113H377.04ZM412.852 113L418.648 78.0909H432.42C435.057 78.0909 437.227 78.5568 438.932 79.4886C440.648 80.4205 441.852 81.7443 442.545 83.4602C443.25 85.1648 443.415 87.1761 443.04 89.4943C442.653 91.8125 441.818 93.8011 440.534 95.4602C439.261 97.1193 437.602 98.3977 435.557 99.2955C433.523 100.182 431.165 100.625 428.483 100.625H419.261L420.284 94.6932H428.295C429.705 94.6932 430.909 94.5 431.909 94.1136C432.909 93.7273 433.699 93.1477 434.278 92.375C434.869 91.6023 435.256 90.642 435.438 89.4943C435.631 88.3239 435.563 87.3466 435.233 86.5625C434.903 85.767 434.307 85.1648 433.443 84.7557C432.58 84.3352 431.443 84.125 430.034 84.125H425.057L420.233 113H412.852ZM434.33 97.1136L440.381 113H432.233L426.369 97.1136H434.33ZM479.543 96.0227C478.906 99.75 477.673 102.915 475.844 105.517C474.026 108.119 471.804 110.097 469.179 111.449C466.565 112.801 463.747 113.477 460.724 113.477C457.554 113.477 454.821 112.756 452.526 111.312C450.241 109.869 448.588 107.784 447.565 105.057C446.543 102.318 446.349 99.017 446.986 95.1534C447.599 91.4148 448.821 88.2443 450.651 85.642C452.48 83.0284 454.713 81.0398 457.349 79.6761C459.986 78.3011 462.821 77.6136 465.855 77.6136C469.003 77.6136 471.719 78.3409 474.003 79.7955C476.298 81.25 477.952 83.3523 478.963 86.1023C479.986 88.8409 480.179 92.1477 479.543 96.0227ZM472.196 95.1534C472.594 92.7557 472.577 90.7443 472.145 89.1193C471.724 87.483 470.952 86.2443 469.827 85.4034C468.702 84.5625 467.281 84.142 465.565 84.142C463.702 84.142 461.991 84.608 460.435 85.5398C458.889 86.4716 457.582 87.8239 456.514 89.5966C455.457 91.358 454.724 93.5 454.315 96.0227C453.906 98.4318 453.918 100.443 454.349 102.057C454.793 103.67 455.582 104.892 456.719 105.722C457.866 106.54 459.293 106.949 460.997 106.949C462.849 106.949 464.543 106.494 466.077 105.585C467.622 104.665 468.923 103.33 469.98 101.58C471.037 99.8182 471.776 97.6761 472.196 95.1534ZM509.538 78.0909H516.919L513.169 100.761C512.749 103.307 511.777 105.534 510.254 107.443C508.732 109.352 506.794 110.841 504.442 111.909C502.089 112.966 499.464 113.494 496.567 113.494C493.669 113.494 491.226 112.966 489.237 111.909C487.249 110.841 485.811 109.352 484.925 107.443C484.038 105.534 483.805 103.307 484.226 100.761L487.976 78.0909H495.357L491.692 100.131C491.487 101.46 491.589 102.642 491.999 103.676C492.419 104.71 493.112 105.523 494.078 106.114C495.044 106.705 496.237 107 497.658 107C499.089 107 500.385 106.705 501.544 106.114C502.714 105.523 503.675 104.71 504.425 103.676C505.186 102.642 505.669 101.46 505.874 100.131L509.538 78.0909Z" fill="white"/>
<path d="M257.085 145V131.909H261.509C262.536 131.909 263.375 132.094 264.027 132.465C264.683 132.832 265.169 133.328 265.484 133.955C265.8 134.581 265.957 135.28 265.957 136.051C265.957 136.822 265.8 137.523 265.484 138.154C265.173 138.785 264.692 139.288 264.04 139.663C263.388 140.033 262.553 140.219 261.534 140.219H258.364V138.812H261.483C262.186 138.812 262.751 138.691 263.177 138.448C263.603 138.205 263.912 137.877 264.104 137.464C264.3 137.046 264.398 136.575 264.398 136.051C264.398 135.527 264.3 135.058 264.104 134.645C263.912 134.232 263.601 133.908 263.17 133.673C262.74 133.435 262.169 133.315 261.457 133.315H258.67V145H257.085ZM268.511 145V131.909H276.412V133.315H270.096V137.739H276.002V139.145H270.096V143.594H276.514V145H268.511ZM279.269 145V131.909H287.169V133.315H280.854V137.739H286.76V139.145H280.854V143.594H287.272V145H279.269ZM290.027 145V131.909H294.45C295.473 131.909 296.312 132.084 296.968 132.433C297.625 132.778 298.11 133.254 298.426 133.859C298.741 134.464 298.899 135.152 298.899 135.923C298.899 136.695 298.741 137.379 298.426 137.975C298.11 138.572 297.627 139.04 296.975 139.381C296.323 139.718 295.49 139.886 294.475 139.886H290.896V138.455H294.424C295.123 138.455 295.686 138.352 296.112 138.148C296.542 137.943 296.853 137.653 297.045 137.278C297.241 136.899 297.339 136.447 297.339 135.923C297.339 135.399 297.241 134.941 297.045 134.549C296.849 134.157 296.536 133.854 296.105 133.641C295.675 133.424 295.106 133.315 294.399 133.315H291.612V145H290.027ZM296.189 139.119L299.41 145H297.569L294.399 139.119H296.189ZM306.961 137.751V139.158H301.233V137.751H306.961ZM307.768 133.315V131.909H317.586V133.315H313.469V145H311.884V133.315H307.768ZM330.533 138.455C330.533 139.835 330.284 141.028 329.785 142.034C329.287 143.04 328.603 143.815 327.733 144.361C326.864 144.906 325.871 145.179 324.755 145.179C323.638 145.179 322.645 144.906 321.776 144.361C320.907 143.815 320.223 143.04 319.724 142.034C319.225 141.028 318.976 139.835 318.976 138.455C318.976 137.074 319.225 135.881 319.724 134.875C320.223 133.869 320.907 133.094 321.776 132.548C322.645 132.003 323.638 131.73 324.755 131.73C325.871 131.73 326.864 132.003 327.733 132.548C328.603 133.094 329.287 133.869 329.785 134.875C330.284 135.881 330.533 137.074 330.533 138.455ZM328.999 138.455C328.999 137.321 328.809 136.364 328.43 135.585C328.055 134.805 327.546 134.214 326.902 133.814C326.263 133.413 325.547 133.213 324.755 133.213C323.962 133.213 323.244 133.413 322.6 133.814C321.961 134.214 321.452 134.805 321.073 135.585C320.698 136.364 320.51 137.321 320.51 138.455C320.51 139.588 320.698 140.545 321.073 141.325C321.452 142.104 321.961 142.695 322.6 143.095C323.244 143.496 323.962 143.696 324.755 143.696C325.547 143.696 326.263 143.496 326.902 143.095C327.546 142.695 328.055 142.104 328.43 141.325C328.809 140.545 328.999 139.588 328.999 138.455ZM338.619 137.751V139.158H332.892V137.751H338.619ZM341.478 145V131.909H345.901C346.928 131.909 347.768 132.094 348.42 132.465C349.076 132.832 349.562 133.328 349.877 133.955C350.192 134.581 350.35 135.28 350.35 136.051C350.35 136.822 350.192 137.523 349.877 138.154C349.566 138.785 349.084 139.288 348.432 139.663C347.78 140.033 346.945 140.219 345.927 140.219H342.756V138.812H345.876C346.579 138.812 347.143 138.691 347.569 138.448C347.996 138.205 348.305 137.877 348.496 137.464C348.692 137.046 348.79 136.575 348.79 136.051C348.79 135.527 348.692 135.058 348.496 134.645C348.305 134.232 347.993 133.908 347.563 133.673C347.133 133.435 346.562 133.315 345.85 133.315H343.063V145H341.478ZM352.904 145V131.909H360.804V133.315H354.489V137.739H360.395V139.145H354.489V143.594H360.906V145H352.904ZM363.661 145V131.909H371.562V133.315H365.247V137.739H371.153V139.145H365.247V143.594H371.664V145H363.661ZM374.419 145V131.909H378.843C379.865 131.909 380.705 132.084 381.361 132.433C382.017 132.778 382.503 133.254 382.818 133.859C383.134 134.464 383.291 135.152 383.291 135.923C383.291 136.695 383.134 137.379 382.818 137.975C382.503 138.572 382.019 139.04 381.367 139.381C380.715 139.718 379.882 139.886 378.868 139.886H375.289V138.455H378.817C379.516 138.455 380.078 138.352 380.504 138.148C380.935 137.943 381.246 137.653 381.438 137.278C381.634 136.899 381.732 136.447 381.732 135.923C381.732 135.399 381.634 134.941 381.438 134.549C381.242 134.157 380.928 133.854 380.498 133.641C380.068 133.424 379.499 133.315 378.791 133.315H376.004V145H374.419ZM380.581 139.119L383.803 145H381.962L378.791 139.119H380.581ZM390.995 145V131.909H395.419C396.446 131.909 397.285 132.094 397.937 132.465C398.593 132.832 399.079 133.328 399.395 133.955C399.71 134.581 399.868 135.28 399.868 136.051C399.868 136.822 399.71 137.523 399.395 138.154C399.083 138.785 398.602 139.288 397.95 139.663C397.298 140.033 396.463 140.219 395.444 140.219H392.274V138.812H395.393C396.096 138.812 396.661 138.691 397.087 138.448C397.513 138.205 397.822 137.877 398.014 137.464C398.21 137.046 398.308 136.575 398.308 136.051C398.308 135.527 398.21 135.058 398.014 134.645C397.822 134.232 397.511 133.908 397.081 133.673C396.65 133.435 396.079 133.315 395.368 133.315H392.581V145H390.995ZM402.421 145V131.909H406.844C407.867 131.909 408.707 132.084 409.363 132.433C410.019 132.778 410.505 133.254 410.82 133.859C411.136 134.464 411.293 135.152 411.293 135.923C411.293 136.695 411.136 137.379 410.82 137.975C410.505 138.572 410.021 139.04 409.369 139.381C408.717 139.718 407.884 139.886 406.87 139.886H403.29V138.455H406.819C407.518 138.455 408.08 138.352 408.506 138.148C408.937 137.943 409.248 137.653 409.44 137.278C409.636 136.899 409.734 136.447 409.734 135.923C409.734 135.399 409.636 134.941 409.44 134.549C409.244 134.157 408.93 133.854 408.5 133.641C408.07 133.424 407.501 133.315 406.793 133.315H404.006V145H402.421ZM408.583 139.119L411.805 145H409.964L406.793 139.119H408.583ZM424.98 138.455C424.98 139.835 424.731 141.028 424.232 142.034C423.734 143.04 423.05 143.815 422.181 144.361C421.311 144.906 420.318 145.179 419.202 145.179C418.085 145.179 417.093 144.906 416.223 144.361C415.354 143.815 414.67 143.04 414.171 142.034C413.673 141.028 413.423 139.835 413.423 138.455C413.423 137.074 413.673 135.881 414.171 134.875C414.67 133.869 415.354 133.094 416.223 132.548C417.093 132.003 418.085 131.73 419.202 131.73C420.318 131.73 421.311 132.003 422.181 132.548C423.05 133.094 423.734 133.869 424.232 134.875C424.731 135.881 424.98 137.074 424.98 138.455ZM423.446 138.455C423.446 137.321 423.257 136.364 422.877 135.585C422.502 134.805 421.993 134.214 421.35 133.814C420.71 133.413 419.994 133.213 419.202 133.213C418.409 133.213 417.691 133.413 417.048 133.814C416.409 134.214 415.899 134.805 415.52 135.585C415.145 136.364 414.958 137.321 414.958 138.455C414.958 139.588 415.145 140.545 415.52 141.325C415.899 142.104 416.409 142.695 417.048 143.095C417.691 143.496 418.409 143.696 419.202 143.696C419.994 143.696 420.71 143.496 421.35 143.095C421.993 142.695 422.502 142.104 422.877 141.325C423.257 140.545 423.446 139.588 423.446 138.455ZM428.202 131.909L431.577 137.355H431.679L435.054 131.909H436.921L432.804 138.455L436.921 145H435.054L431.679 139.656H431.577L428.202 145H426.335L430.554 138.455L426.335 131.909H428.202ZM437.859 131.909H439.674L443.305 138.02H443.458L447.089 131.909H448.904L444.174 139.605V145H442.589V139.605L437.859 131.909ZM466.398 131.909V145H464.863L457.73 134.722H457.602V145H456.017V131.909H457.551L464.71 142.213H464.838V131.909H466.398ZM469.57 145V131.909H477.47V133.315H471.155V137.739H477.061V139.145H471.155V143.594H477.572V145H469.57ZM479.612 133.315V131.909H489.43V133.315H485.313V145H483.728V133.315H479.612ZM494.254 145L490.675 131.909H492.285L495.021 142.571H495.149L497.936 131.909H499.726L502.513 142.571H502.64L505.376 131.909H506.987L503.407 145H501.771L498.882 134.568H498.78L495.89 145H494.254ZM519.392 138.455C519.392 139.835 519.143 141.028 518.645 142.034C518.146 143.04 517.462 143.815 516.593 144.361C515.723 144.906 514.73 145.179 513.614 145.179C512.498 145.179 511.505 144.906 510.635 144.361C509.766 143.815 509.082 143.04 508.583 142.034C508.085 141.028 507.836 139.835 507.836 138.455C507.836 137.074 508.085 135.881 508.583 134.875C509.082 133.869 509.766 133.094 510.635 132.548C511.505 132.003 512.498 131.73 513.614 131.73C514.73 131.73 515.723 132.003 516.593 132.548C517.462 133.094 518.146 133.869 518.645 134.875C519.143 135.881 519.392 137.074 519.392 138.455ZM517.858 138.455C517.858 137.321 517.669 136.364 517.289 135.585C516.914 134.805 516.405 134.214 515.762 133.814C515.123 133.413 514.407 133.213 513.614 133.213C512.821 133.213 512.103 133.413 511.46 133.814C510.821 134.214 510.311 134.805 509.932 135.585C509.557 136.364 509.37 137.321 509.37 138.455C509.37 139.588 509.557 140.545 509.932 141.325C510.311 142.104 510.821 142.695 511.46 143.095C512.103 143.496 512.821 143.696 513.614 143.696C514.407 143.696 515.123 143.496 515.762 143.095C516.405 142.695 516.914 142.104 517.289 141.325C517.669 140.545 517.858 139.588 517.858 138.455ZM522.058 145V131.909H526.481C527.504 131.909 528.343 132.084 529 132.433C529.656 132.778 530.142 133.254 530.457 133.859C530.772 134.464 530.93 135.152 530.93 135.923C530.93 136.695 530.772 137.379 530.457 137.975C530.142 138.572 529.658 139.04 529.006 139.381C528.354 139.718 527.521 139.886 526.507 139.886H522.927V138.455H526.456C527.154 138.455 527.717 138.352 528.143 138.148C528.574 137.943 528.885 137.653 529.076 137.278C529.272 136.899 529.37 136.447 529.37 135.923C529.37 135.399 529.272 134.941 529.076 134.549C528.88 134.157 528.567 133.854 528.137 133.641C527.706 133.424 527.137 133.315 526.43 133.315H523.643V145H522.058ZM528.22 139.119L531.441 145H529.6L526.43 139.119H528.22ZM533.572 145V131.909H535.157V138.403H535.31L541.191 131.909H543.262L537.765 137.815L543.262 145H541.344L536.793 138.915L535.157 140.756V145H533.572Z" fill="white"/>
</g>
<defs>
<clipPath id="clip0_2953_64">
<rect width="800" height="200" fill="white"/>
</clipPath>
</defs>
</svg>
