<svg width="300" height="300" viewBox="0 0 300 300" fill="none" xmlns="http://www.w3.org/2000/svg">
<rect width="300" height="300" rx="150" fill="#CC8D4A"/>
<path opacity="0.2" d="M150.5 64H210.083C218.028 64 222 67.9722 222 75.9167V171.25C222 195.083 210.083 214.944 186.25 230.833C162.417 241.956 150.5 247.517 150.5 247.517C150.5 247.517 138.583 241.956 114.75 230.833C90.9167 214.944 79 195.083 79 171.25V75.9167C79 67.9722 82.9722 64 90.9167 64H150.5Z" fill="white" stroke="white" stroke-width="2"/>
<path d="M150.501 123.583C157.082 123.583 162.417 118.248 162.417 111.667C162.417 105.085 157.082 99.75 150.501 99.75C143.919 99.75 138.584 105.085 138.584 111.667C138.584 118.248 143.919 123.583 150.501 123.583Z" fill="white"/>
<path d="M121.899 178.4C128.48 178.4 133.816 173.064 133.816 166.483C133.816 159.902 128.48 154.566 121.899 154.566C115.318 154.566 109.982 159.902 109.982 166.483C109.982 173.064 115.318 178.4 121.899 178.4Z" fill="white"/>
<path d="M179.1 178.4C185.682 178.4 191.017 173.064 191.017 166.483C191.017 159.902 185.682 154.566 179.1 154.566C172.519 154.566 167.184 159.902 167.184 166.483C167.184 173.064 172.519 178.4 179.1 178.4Z" fill="white"/>
<path d="M150.5 111.667L121.9 166.484" stroke="white" stroke-width="7.5"/>
<path d="M150.5 111.667L179.1 166.484" stroke="white" stroke-width="7.5"/>
<path d="M121.9 166.483H179.1" stroke="white" stroke-width="7.5"/>
</svg>
